<svg width="154" height="46" viewBox="0 0 154 46" fill="none" xmlns="http://www.w3.org/2000/svg">
<path d="M0 43.396H7.68251V31.4215C7.68251 31.4215 7.39547 24.5548 11.0594 23.743C14.7234 22.9311 17.5937 23.743 17.5937 23.743C17.5937 23.743 19.6874 24.4026 20.3121 20.9354C20.9369 17.4682 18.7925 15.8277 16.5469 15.8277C14.3013 15.8277 0.0169011 14.6268 0.0169011 27.5653V43.4129" fill="#2958A7"/>
<path d="M150.451 37.8505C148.258 37.8505 147.498 34.4725 147.498 34.4725V16.738H140.209V33.932C140.209 33.932 140.108 36.9384 137.729 36.9384C135.35 36.9384 134.827 34.4556 134.827 34.4556V25.2506C134.827 20.6734 130.878 15.9104 124.787 15.9104C118.696 15.9104 115.557 19.5755 115.557 19.5755C112.031 15.5726 106.277 15.9104 106.277 15.9104C96.6088 15.9104 95.5796 25.9093 95.5796 25.9093V32.6146C95.5796 32.6146 96.187 36.9722 93.6729 36.9722C91.1588 36.9722 91.2431 35.4859 91.2431 35.4859V16.4002H84.1057V32.9186C84.1057 32.9186 83.3127 37.2087 79.6849 37.2087C76.0572 37.2087 74.623 34.7765 74.623 34.7765V16.3326H67.4856V31.1958C64.4821 43.914 55.2694 41.8534 55.2694 41.8534C67.0469 37.3438 64.4821 25.9093 64.4821 25.9093C58.4921 9.47529 44.7742 18.5452 44.7742 18.5452V0H37.4175V33.2395C37.4175 33.2395 35.8482 37.1749 33.8403 37.1749C31.8324 37.1749 31.0563 35.2494 31.0563 35.2494V15.8766H22.9908V36.0939C22.9908 39.2186 26.6692 43.8971 32.8111 43.8971C38.9529 43.8971 41.5177 39.7084 41.5177 39.7084C42.3445 42.0392 48.2332 45.4679 56.9061 45.4679C65.5789 45.4679 70.1178 39.6071 70.1178 39.6071C70.1178 39.6071 72.4801 43.9985 78.1495 43.9985C83.8189 43.9985 86.8223 40.536 86.8223 40.536C86.8223 40.536 87.8853 43.762 94.6009 43.762C101.316 43.762 102.953 34.2867 102.953 34.2867V28.0036C102.953 27.176 103.662 23.1731 107.205 23.1731C110.749 23.1731 111.66 26.2808 111.66 26.2808V43.5762H119.084V28.2063C119.016 26.6693 119.793 22.9873 123.589 22.9873C127.386 22.9873 127.875 27.3787 127.875 27.3787V33.02C127.875 40.8063 132.38 43.762 137.088 43.762C141.795 43.762 143.618 40.9414 143.618 40.9414C144.242 42.9344 147.802 43.7282 147.802 43.7282C149.473 43.7282 154.18 44.3025 153.995 40.9245C153.809 37.5465 152.662 37.8674 150.468 37.8674L150.451 37.8505ZM44.5717 29.9629C44.5717 25.9768 47.4908 22.7339 51.1017 22.7339C54.7125 22.7339 57.6316 25.9768 57.6316 29.9629C57.6316 33.9489 54.7125 37.1918 51.1017 37.1918C47.4908 37.1918 44.5717 33.9489 44.5717 29.9629Z" fill="#2958A7"/>
<path d="M26.9725 11.9451C29.4552 11.9451 31.4679 9.93239 31.4679 7.44964C31.4679 4.96689 29.4552 2.95422 26.9725 2.95422C24.4897 2.95422 22.4771 4.96689 22.4771 7.44964C22.4771 9.93239 24.4897 11.9451 26.9725 11.9451Z" fill="#2958A7"/>
<path d="M144.367 11.9451C146.85 11.9451 148.862 9.93239 148.862 7.44964C148.862 4.96689 146.85 2.95422 144.367 2.95422C141.884 2.95422 139.872 4.96689 139.872 7.44964C139.872 9.93239 141.884 11.9451 144.367 11.9451Z" fill="#2958A7"/>
</svg>
